<svg xmlns="http://www.w3.org/2000/svg" width="1440" height="376" viewBox="0 0 1440 376">
  <defs>
    <linearGradient id="-bg1-a" x1="50%" x2="50%" y1=".375%" y2="100%">
      <stop offset="0%" stop-color="#FFF" stop-opacity="0"/>
      <stop offset="67.726%" stop-color="#FFF" stop-opacity=".8"/>
      <stop offset="100%" stop-color="#FFF"/>
    </linearGradient>
    <linearGradient id="-bg1-b" x1=".791%" x2="100%" y1="49.32%" y2="49.559%">
      <stop offset="0%" stop-color="#00E2B7"/>
      <stop offset="26.352%" stop-color="#00D3C3"/>
      <stop offset="52.339%" stop-color="#00BBC4"/>
      <stop offset="67.171%" stop-color="#05A6CC"/>
      <stop offset="100%" stop-color="#0285CE"/>
    </linearGradient>
  </defs>
  <g fill="none" fill-rule="evenodd">
    <rect width="1440" height="376" fill="url(#-bg1-a)"/>
    <path fill="#FFF" d="M1440,0.00593676846 C1244.16,0.00593676846 1060.8048,41.8820368 887.944635,82.9206148 L847.464375,92.5406868 C696.3825,128.403437 553.35,161.005937 417,161.005937 C259.26,161.005937 121.4487,137.91982 3.5661,91.747585 L0,90.34136 L0,9.29953643e-08 L1440,9.29953643e-08 L1440,0.00593676846 Z"/>
    <path fill="url(#-bg1-b)" d="M487.5,84.5000001 C534.011849,84.5000001 582.043566,89.550765 631.059184,96.9674901 L636.222334,97.7568206 C637.94458,98.0227662 639.668014,98.2915088 641.392613,98.5629322 L646.569881,99.3851292 L646.569881,99.3851292 L651.754001,100.222716 L651.754001,100.222716 L656.944834,101.074996 L656.944834,101.074996 L662.14224,101.941274 L662.14224,101.941274 L667.34608,102.820853 L667.34608,102.820853 L672.556216,103.713039 C673.425089,103.862748 674.294218,104.012954 675.163601,104.163641 L680.38292,105.073431 L680.38292,105.073431 L685.608187,105.994087 L685.608187,105.994087 L690.839263,106.924914 L690.839263,106.924914 L696.07601,107.865215 L696.07601,107.865215 L703.941458,109.291909 L703.941458,109.291909 L709.191773,110.252852 L709.191773,110.252852 L714.447272,111.220835 L714.447272,111.220835 L722.339938,112.684484 L722.339938,112.684484 L732.88034,114.654157 L732.88034,114.654157 L740.79767,116.141974 C741.677926,116.307689 742.558363,116.473523 743.438979,116.639461 C741.175691,117.142552 738.914225,117.643265 736.654579,118.141496 L729.881089,119.628631 C726.497066,120.368368 723.117123,121.102278 719.741244,121.830005 L712.994899,123.277106 C610.757341,145.096522 512.248203,161.005937 417,161.005937 C318.172479,161.005937 227.167557,151.943958 143.985235,133.820001 C195.380301,130.246409 238.703049,121.958647 280.323474,113.17731 L286.714045,111.82301 L286.714045,111.82301 L308.94393,107.070937 L308.94393,107.070937 L315.277413,105.723854 L315.277413,105.723854 L321.612385,104.387767 C372.311857,93.7521601 423.649072,84.5000001 487.5,84.5000001 Z" opacity=".2"/>
  </g>
</svg>
